<svg width="152" height="40" viewBox="0 0 152 40" fill="none" xmlns="http://www.w3.org/2000/svg">
<rect width="152" height="40" rx="6" fill="#111111"/>
<rect x="0.490323" y="0.490323" width="151.019" height="39.0194" rx="5.50968" stroke="white" stroke-opacity="0.2" stroke-width="0.980645"/>
<path d="M24.2896 19.9086C24.3001 19.0901 24.5176 18.2875 24.9216 17.5756C25.3257 16.8637 25.9032 16.2656 26.6005 15.8369C26.1576 15.2042 25.5731 14.6835 24.8937 14.3162C24.2143 13.9489 23.4586 13.7451 22.6866 13.721C21.0399 13.5481 19.4435 14.7063 18.6043 14.7063C17.7489 14.7063 16.4569 13.7381 15.0657 13.7667C14.1657 13.7958 13.2887 14.0575 12.52 14.5263C11.7513 14.9951 11.1171 15.6551 10.6793 16.4418C8.78274 19.7254 10.1974 24.5512 12.0142 27.2055C12.9231 28.5052 13.9854 29.9569 15.3754 29.9055C16.7357 29.849 17.2437 29.0381 18.8856 29.0381C20.5122 29.0381 20.9888 29.9055 22.4071 29.8727C23.8666 29.849 24.7862 28.5673 25.6633 27.2553C26.3164 26.3292 26.8189 25.3056 27.1523 24.2226C26.3044 23.8639 25.5807 23.2636 25.0717 22.4965C24.5626 21.7293 24.2906 20.8293 24.2896 19.9086Z" fill="white"/>
<path d="M21.6108 11.9753C22.4067 11.02 22.7987 9.79201 22.7038 8.55225C21.488 8.67995 20.3649 9.26104 19.5583 10.1797C19.1639 10.6285 18.8619 11.1507 18.6695 11.7163C18.477 12.2819 18.3979 12.8799 18.4367 13.4761C19.0449 13.4823 19.6465 13.3505 20.1963 13.0906C20.7461 12.8306 21.2298 12.4493 21.6108 11.9753Z" fill="white"/>
<path d="M41.4837 26.6144H36.8419L35.7272 29.9059H33.7611L38.1577 17.7283H40.2004L44.597 29.9059H42.5974L41.4837 26.6144ZM37.3226 25.0956H41.002L39.1882 19.7537H39.1375L37.3226 25.0956Z" fill="white"/>
<path d="M54.092 25.4683C54.092 28.2274 52.6153 30 50.3869 30C49.8223 30.0295 49.2609 29.8995 48.7669 29.6248C48.2728 29.35 47.8661 28.9418 47.5934 28.4466H47.5512V32.8442H45.7288V21.0286H47.4928V22.5053H47.5263C47.8116 22.0126 48.2252 21.6064 48.723 21.33C49.2208 21.0536 49.7842 20.9174 50.3533 20.9357C52.6067 20.9357 54.092 22.717 54.092 25.4683ZM52.2189 25.4683C52.2189 23.6708 51.2899 22.4891 49.8726 22.4891C48.4801 22.4891 47.5436 23.6957 47.5436 25.4683C47.5436 27.2573 48.4801 28.4553 49.8726 28.4553C51.2899 28.4553 52.2189 27.2821 52.2189 25.4683Z" fill="white"/>
<path d="M63.8641 25.4683C63.8641 28.2274 62.3874 30 60.1589 30C59.5944 30.0295 59.033 29.8995 58.539 29.6248C58.0449 29.35 57.6382 28.9418 57.3655 28.4466H57.3233V32.8442H55.5009V21.0286H57.2649V22.5053H57.2984C57.5837 22.0126 57.9973 21.6064 58.4951 21.33C58.9929 21.0536 59.5563 20.9174 60.1254 20.9357C62.3788 20.9357 63.8641 22.717 63.8641 25.4683ZM61.991 25.4683C61.991 23.6708 61.062 22.489 59.6447 22.489C58.2522 22.489 57.3156 23.6957 57.3156 25.4683C57.3156 27.2572 58.2522 28.4553 59.6447 28.4553C61.062 28.4553 61.991 27.2821 61.991 25.4683H61.991Z" fill="white"/>
<path d="M70.3225 26.5131C70.4575 27.7207 71.6306 28.5136 73.2338 28.5136C74.7698 28.5136 75.875 27.7207 75.875 26.6318C75.875 25.6866 75.2084 25.1206 73.6302 24.7328L72.052 24.3526C69.8159 23.8124 68.7778 22.7667 68.7778 21.0697C68.7778 18.9686 70.6088 17.5254 73.2089 17.5254C75.7821 17.5254 77.5461 18.9686 77.6055 21.0697H75.7658C75.6557 19.8544 74.6511 19.1209 73.183 19.1209C71.7149 19.1209 70.7103 19.8631 70.7103 20.9433C70.7103 21.8042 71.3519 22.3108 72.9215 22.6986L74.2632 23.0281C76.7617 23.619 77.7999 24.6226 77.7999 26.4038C77.7999 28.6821 75.9851 30.109 73.0987 30.109C70.3981 30.109 68.5747 28.7156 68.4569 26.513L70.3225 26.5131Z" fill="white"/>
<path d="M81.7333 18.9268V21.0279H83.4217V22.4711H81.7333V27.3657C81.7333 28.1261 82.0714 28.4804 82.8135 28.4804C83.014 28.4769 83.2141 28.4628 83.413 28.4382V29.8728C83.0793 29.9351 82.7402 29.9634 82.4008 29.9571C80.6033 29.9571 79.9022 29.2819 79.9022 27.56V22.4711H78.6113V21.0279H79.9022V18.9268H81.7333Z" fill="white"/>
<path d="M84.3992 25.4676C84.3992 22.6741 86.0444 20.9187 88.61 20.9187C91.1842 20.9187 92.8218 22.6741 92.8218 25.4676C92.8218 28.2688 91.1928 30.0165 88.61 30.0165C86.0281 30.0165 84.3992 28.2687 84.3992 25.4676ZM90.9649 25.4676C90.9649 23.5513 90.0867 22.4203 88.61 22.4203C87.1333 22.4203 86.2561 23.5599 86.2561 25.4676C86.2561 27.3915 87.1333 28.5139 88.61 28.5139C90.0867 28.5139 90.9649 27.3915 90.9649 25.4676H90.9649Z" fill="white"/>
<path d="M94.3248 21.0285H96.063V22.5397H96.1052C96.2228 22.0677 96.4993 21.6506 96.8882 21.3585C97.2771 21.0664 97.7547 20.9171 98.2407 20.9356C98.4508 20.9349 98.6602 20.9577 98.8651 21.0036V22.7083C98.6 22.6272 98.3234 22.59 98.0463 22.5981C97.7815 22.5874 97.5176 22.6341 97.2726 22.735C97.0276 22.8359 96.8073 22.9886 96.6269 23.1826C96.4465 23.3767 96.3102 23.6075 96.2274 23.8592C96.1446 24.1109 96.1173 24.3775 96.1473 24.6408V29.907H94.3248L94.3248 21.0285Z" fill="white"/>
<path d="M107.267 27.2986C107.022 28.9104 105.453 30.0165 103.444 30.0165C100.862 30.0165 99.2584 28.286 99.2584 25.5097C99.2584 22.7249 100.87 20.9187 103.368 20.9187C105.824 20.9187 107.369 22.6061 107.369 25.2981V25.9225H101.098V26.0326C101.069 26.3594 101.11 26.6885 101.218 26.9983C101.326 27.308 101.499 27.5912 101.725 27.829C101.951 28.0669 102.225 28.254 102.528 28.3778C102.832 28.5017 103.159 28.5595 103.487 28.5474C103.917 28.5878 104.349 28.488 104.719 28.263C105.088 28.038 105.375 27.6998 105.537 27.2986L107.267 27.2986ZM101.107 24.6488H105.545C105.562 24.355 105.517 24.061 105.415 23.7852C105.312 23.5095 105.153 23.2579 104.949 23.0463C104.744 22.8347 104.498 22.6677 104.226 22.5557C103.954 22.4436 103.662 22.3891 103.368 22.3954C103.071 22.3936 102.777 22.4507 102.502 22.5632C102.228 22.6757 101.978 22.8415 101.768 23.051C101.558 23.2605 101.391 23.5096 101.277 23.7838C101.164 24.058 101.106 24.352 101.107 24.6488V24.6488Z" fill="white"/>
<path d="M37.0939 8.56255C37.476 8.53513 37.8594 8.59285 38.2164 8.73155C38.5735 8.87024 38.8953 9.08645 39.1587 9.36459C39.4221 9.64273 39.6205 9.97585 39.7395 10.3399C39.8586 10.704 39.8954 11.09 39.8472 11.47C39.8472 13.3394 38.8369 14.4139 37.0939 14.4139H34.9803V8.56255H37.0939ZM35.8892 13.5864H36.9924C37.2654 13.6027 37.5386 13.5579 37.7922 13.4554C38.0457 13.3528 38.2732 13.1949 38.458 12.9933C38.6429 12.7918 38.7804 12.5515 38.8607 12.29C38.941 12.0286 38.9619 11.7525 38.9221 11.4819C38.959 11.2124 38.936 10.9381 38.8544 10.6785C38.7729 10.419 38.635 10.1807 38.4506 9.98069C38.2662 9.78071 38.0398 9.62399 37.7877 9.52177C37.5356 9.41956 37.264 9.37436 36.9924 9.38944H35.8892V13.5864Z" fill="white"/>
<path d="M40.8739 12.204C40.8461 11.9138 40.8793 11.621 40.9713 11.3444C41.0633 11.0678 41.2122 10.8135 41.4082 10.5978C41.6043 10.382 41.8433 10.2097 42.1099 10.0917C42.3765 9.97377 42.6648 9.91284 42.9563 9.91284C43.2478 9.91284 43.5361 9.97377 43.8027 10.0917C44.0693 10.2097 44.3083 10.382 44.5044 10.5978C44.7004 10.8135 44.8493 11.0678 44.9413 11.3444C45.0333 11.621 45.0665 11.9138 45.0387 12.204C45.067 12.4945 45.0342 12.7877 44.9424 13.0647C44.8507 13.3418 44.7019 13.5966 44.5058 13.8127C44.3097 14.0289 44.0705 14.2016 43.8037 14.3198C43.5368 14.438 43.2482 14.4991 42.9563 14.4991C42.6644 14.4991 42.3758 14.438 42.1089 14.3198C41.8421 14.2016 41.6029 14.0289 41.4068 13.8127C41.2107 13.5966 41.0619 13.3418 40.9702 13.0647C40.8784 12.7877 40.8456 12.4945 40.8739 12.204ZM44.1424 12.204C44.1424 11.2468 43.7124 10.6871 42.9577 10.6871C42.2002 10.6871 41.7741 11.2468 41.7741 12.204C41.7741 13.1689 42.2003 13.7243 42.9577 13.7243C43.7124 13.7243 44.1424 13.165 44.1424 12.204H44.1424Z" fill="white"/>
<path d="M50.5749 14.4131H49.6709L48.7582 11.1609H48.6893L47.7805 14.4131H46.885L45.6678 9.99731H46.5518L47.3428 13.3668H47.4079L48.3158 9.99731H49.1518L50.0597 13.3668H50.1286L50.9158 9.99731H51.7873L50.5749 14.4131Z" fill="white"/>
<path d="M52.8113 9.99803H53.6502V10.6995H53.7153C53.8258 10.4476 54.0121 10.2364 54.2483 10.0953C54.4845 9.95432 54.7589 9.89051 55.0331 9.91279C55.2479 9.89664 55.4637 9.92904 55.6643 10.0076C55.8649 10.0861 56.0453 10.2088 56.1921 10.3665C56.3389 10.5243 56.4483 10.713 56.5123 10.9188C56.5762 11.1245 56.593 11.342 56.5615 11.5552V14.4138H55.69V11.774C55.69 11.0644 55.3816 10.7115 54.7371 10.7115C54.5913 10.7047 54.4456 10.7295 54.3103 10.7843C54.1749 10.839 54.0529 10.9224 53.9528 11.0287C53.8526 11.135 53.7766 11.2617 53.73 11.4001C53.6834 11.5385 53.6673 11.6853 53.6827 11.8305V14.4138H52.8113L52.8113 9.99803Z" fill="white"/>
<path d="M57.9501 8.27417H58.8215V14.4137H57.9501V8.27417Z" fill="white"/>
<path d="M60.0331 12.2041C60.0054 11.9139 60.0386 11.6211 60.1307 11.3444C60.2227 11.0678 60.3716 10.8135 60.5676 10.5978C60.7637 10.382 61.0028 10.2097 61.2694 10.0917C61.536 9.97377 61.8243 9.91284 62.1158 9.91284C62.4074 9.91284 62.6957 9.97377 62.9623 10.0917C63.2289 10.2097 63.4679 10.382 63.664 10.5978C63.8601 10.8135 64.0089 11.0678 64.101 11.3444C64.193 11.6211 64.2262 11.9139 64.1985 12.2041C64.2267 12.4946 64.1939 12.7878 64.1021 13.0648C64.0103 13.3419 63.8615 13.5967 63.6654 13.8128C63.4693 14.029 63.2301 14.2017 62.9632 14.3199C62.6963 14.4381 62.4077 14.4991 62.1158 14.4991C61.8239 14.4991 61.5353 14.4381 61.2684 14.3199C61.0016 14.2017 60.7624 14.029 60.5662 13.8128C60.3701 13.5967 60.2213 13.3419 60.1295 13.0648C60.0377 12.7878 60.0049 12.4946 60.0331 12.2041ZM63.3016 12.2041C63.3016 11.2469 62.8716 10.6872 62.117 10.6872C61.3595 10.6872 60.9334 11.2469 60.9334 12.2041C60.9334 13.1689 61.3595 13.7244 62.117 13.7244C62.8716 13.7244 63.3016 13.1651 63.3016 12.2041H63.3016Z" fill="white"/>
<path d="M65.1151 13.1651C65.1151 12.3702 65.7069 11.912 66.7575 11.8468L67.9536 11.7779V11.3967C67.9536 10.9304 67.6453 10.667 67.0496 10.667C66.5631 10.667 66.226 10.8456 66.1293 11.1578H65.2856C65.3746 10.3993 66.0881 9.91284 67.0898 9.91284C68.1969 9.91284 68.8213 10.464 68.8213 11.3967V14.4138H67.9824V13.7933H67.9134C67.7734 14.0159 67.5769 14.1974 67.3439 14.3192C67.1109 14.441 66.8497 14.4987 66.587 14.4866C66.4017 14.5059 66.2143 14.4861 66.037 14.4285C65.8598 14.371 65.6965 14.2769 65.5579 14.1524C65.4192 14.0279 65.3081 13.8757 65.2319 13.7056C65.1556 13.5356 65.1158 13.3514 65.1151 13.1651ZM67.9536 12.7877V12.4186L66.8753 12.4875C66.2672 12.5282 65.9914 12.7351 65.9914 13.1243C65.9914 13.5218 66.3361 13.753 66.8102 13.753C66.9491 13.7671 67.0894 13.7531 67.2228 13.7118C67.3562 13.6705 67.4799 13.6028 67.5866 13.5128C67.6932 13.4227 67.7807 13.3121 67.8438 13.1876C67.9068 13.063 67.9442 12.927 67.9536 12.7877Z" fill="white"/>
<path d="M69.9669 12.2039C69.9669 10.8086 70.6842 9.92471 71.7999 9.92471C72.0759 9.912 72.3497 9.9781 72.5895 10.1153C72.8293 10.2525 73.0251 10.4551 73.154 10.6994H73.2191V8.27417H74.0906V14.4137H73.2555V13.7161H73.1866C73.0477 13.9588 72.8451 14.1589 72.6007 14.2947C72.3562 14.4305 72.0793 14.4968 71.7999 14.4865C70.6766 14.4866 69.9669 13.6026 69.9669 12.2039ZM70.8672 12.2039C70.8672 13.1405 71.3086 13.7041 72.047 13.7041C72.7815 13.7041 73.2354 13.1324 73.2354 12.2078C73.2354 11.2875 72.7767 10.7076 72.047 10.7076C71.3134 10.7076 70.8671 11.275 70.8671 12.2039H70.8672Z" fill="white"/>
<path d="M77.6963 12.204C77.6685 11.9138 77.7017 11.621 77.7937 11.3444C77.8857 11.0678 78.0346 10.8135 78.2306 10.5978C78.4267 10.382 78.6657 10.2097 78.9323 10.0917C79.1989 9.97377 79.4872 9.91284 79.7787 9.91284C80.0702 9.91284 80.3585 9.97377 80.6251 10.0917C80.8917 10.2097 81.1307 10.382 81.3267 10.5978C81.5228 10.8135 81.6716 11.0678 81.7637 11.3444C81.8557 11.621 81.8889 11.9138 81.8611 12.204C81.8894 12.4945 81.8566 12.7877 81.7648 13.0647C81.673 13.3418 81.5243 13.5966 81.3282 13.8127C81.1321 14.0289 80.8929 14.2016 80.626 14.3198C80.3592 14.438 80.0706 14.4991 79.7787 14.4991C79.4868 14.4991 79.1982 14.438 78.9313 14.3198C78.6645 14.2016 78.4253 14.0289 78.2292 13.8127C78.0331 13.5966 77.8843 13.3418 77.7925 13.0647C77.7008 12.7877 77.668 12.4945 77.6963 12.204ZM80.9647 12.204C80.9647 11.2468 80.5347 10.6871 79.7801 10.6871C79.0226 10.6871 78.5965 11.2468 78.5965 12.204C78.5965 13.1689 79.0226 13.7243 79.7801 13.7243C80.5348 13.7243 80.9647 13.165 80.9647 12.204Z" fill="white"/>
<path d="M83.0299 9.99803H83.8688V10.6995H83.9339C84.0444 10.4476 84.2307 10.2364 84.467 10.0953C84.7032 9.95432 84.9775 9.89051 85.2517 9.91279C85.4665 9.89664 85.6823 9.92904 85.8829 10.0076C86.0836 10.0861 86.264 10.2088 86.4107 10.3665C86.5575 10.5243 86.6669 10.713 86.7309 10.9188C86.7948 11.1245 86.8116 11.342 86.7801 11.5552V14.4138H85.9086V11.774C85.9086 11.0644 85.6003 10.7115 84.9558 10.7115C84.8099 10.7047 84.6643 10.7295 84.5289 10.7843C84.3935 10.839 84.2716 10.9224 84.1714 11.0287C84.0713 11.135 83.9953 11.2617 83.9487 11.4001C83.9021 11.5385 83.8859 11.6853 83.9014 11.8305V14.4138H83.0299V9.99803Z" fill="white"/>
<path d="M91.7049 8.89844V10.0179H92.6616V10.752H91.7049V13.0226C91.7049 13.4852 91.8955 13.6877 92.3293 13.6877C92.4404 13.6873 92.5513 13.6806 92.6616 13.6676V14.3935C92.5051 14.4215 92.3465 14.4364 92.1876 14.438C91.2184 14.438 90.8325 14.0971 90.8325 13.2457V10.752H90.1315V10.0179H90.8325V8.89844H91.7049Z" fill="white"/>
<path d="M93.853 8.27417H94.7168V10.7076H94.7858C94.9016 10.4533 95.0931 10.2409 95.334 10.0993C95.575 9.95778 95.8537 9.89396 96.1322 9.91656C96.346 9.90493 96.5596 9.94062 96.758 10.0211C96.9564 10.1015 97.1345 10.2248 97.2798 10.382C97.425 10.5392 97.5338 10.7266 97.5983 10.9307C97.6628 11.1348 97.6815 11.3506 97.653 11.5628V14.4137H96.7806V11.7778C96.7806 11.0725 96.4521 10.7152 95.8364 10.7152C95.6866 10.703 95.5359 10.7235 95.3949 10.7756C95.254 10.8276 95.126 10.9098 95.0201 11.0164C94.9142 11.1231 94.8329 11.2516 94.7818 11.3929C94.7308 11.5343 94.7112 11.685 94.7245 11.8347V14.4137H93.8531L93.853 8.27417Z" fill="white"/>
<path d="M102.733 13.2216C102.615 13.6252 102.358 13.9743 102.009 14.2078C101.659 14.4414 101.238 14.5445 100.82 14.4991C100.529 14.5068 100.24 14.4511 99.9726 14.3359C99.7054 14.2206 99.4664 14.0486 99.2724 13.8317C99.0783 13.6149 98.9337 13.3584 98.8487 13.08C98.7637 12.8017 98.7403 12.5082 98.7801 12.2199C98.7413 11.9307 98.7652 11.6366 98.85 11.3575C98.9348 11.0783 99.0786 10.8206 99.2716 10.6019C99.4647 10.3831 99.7025 10.2084 99.969 10.0895C100.235 9.97065 100.524 9.91043 100.816 9.91292C102.045 9.91292 102.786 10.7523 102.786 12.139V12.4431H99.6678V12.4919C99.6542 12.654 99.6745 12.8171 99.7276 12.9708C99.7807 13.1245 99.8653 13.2654 99.976 13.3845C100.087 13.5036 100.221 13.5983 100.371 13.6624C100.52 13.7265 100.681 13.7587 100.844 13.7569C101.052 13.782 101.263 13.7444 101.451 13.6491C101.638 13.5538 101.792 13.405 101.894 13.2216L102.733 13.2216ZM99.6678 11.7985H101.898C101.909 11.6503 101.889 11.5015 101.839 11.3615C101.789 11.2216 101.71 11.0936 101.608 10.9859C101.506 10.8782 101.382 10.793 101.245 10.736C101.107 10.6789 100.96 10.6512 100.811 10.6546C100.661 10.6527 100.511 10.681 100.371 10.7379C100.232 10.7947 100.105 10.8789 99.9983 10.9855C99.8917 11.0921 99.8076 11.219 99.7508 11.3586C99.6941 11.4982 99.6658 11.6478 99.6678 11.7985H99.6678Z" fill="white"/>
</svg>
