<svg width="28" height="28" viewBox="0 0 28 28" fill="none" xmlns="http://www.w3.org/2000/svg">
<path d="M21.874 11.3278V10.5058C21.874 5.99228 18.3487 2.33334 14 2.33334C9.65132 2.33334 6.12602 5.99228 6.12602 10.5058V11.3278C6.12602 12.3144 5.84467 13.2788 5.31743 14.0996L4.02542 16.1111C2.84529 17.9484 3.74622 20.4457 5.79876 21.0267C11.1682 22.5467 16.8318 22.5467 22.2012 21.0267C24.2538 20.4457 25.1547 17.9484 23.9746 16.1111L22.6826 14.0996C22.1553 13.2788 21.874 12.3144 21.874 11.3278Z" stroke="#111111" stroke-width="2"/>
<path d="M8.75 22.1667C9.5142 24.2057 11.5762 25.6667 14 25.6667C16.4238 25.6667 18.4858 24.2057 19.25 22.1667" stroke="#111111" stroke-width="2" stroke-linecap="round"/>
</svg>
