<svg width="24" height="24" viewBox="0 0 24 24" fill="none" xmlns="http://www.w3.org/2000/svg">
<path d="M12.9963 2.71871C12.9875 2.67187 12.9815 2.62339 12.9782 2.57433C12.9309 1.89436 13.4427 1.30473 14.1227 1.25683C14.8033 1.2094 15.3928 1.72195 15.4402 2.40191C15.4876 3.08188 14.9757 3.67151 14.2958 3.71942C14.2528 3.72268 14.2103 3.72326 14.1685 3.72163C14.1409 3.72873 14.1244 3.73209 14.1007 3.75302C14.0307 3.86207 14.2787 3.84172 14.1101 4.31836C14.1101 4.31836 14.109 4.37068 14.0903 4.423C14.077 4.60598 14.0065 5.14819 13.9966 5.43695C14.0324 5.47881 14.0424 5.49916 14.0385 5.60064C14.0225 5.73782 13.9911 6.07401 13.9404 6.28943C13.8975 6.47404 13.822 6.50927 13.7614 6.55449C13.6759 6.93695 13.6534 7.25376 13.4341 7.7183C13.4142 8.07043 13.3895 8.16633 13.3156 8.33827C13.3074 8.85676 13.3432 8.93395 12.9934 9.75494C12.903 10.1389 12.9889 10.4046 13.0843 10.8035C13.1818 11.2136 13.4523 11.3849 13.4926 11.8048C13.5873 12.7936 13.5636 13.467 13.3514 14.2423L13.5366 14.6809C13.7665 14.7862 14.3367 15.0744 14.0205 15.5306C14.4657 15.7647 15.1385 16.0133 15.6934 16.4878C15.9166 16.6736 16.1523 16.8763 16.3639 17.1143C16.7667 17.1771 16.7237 17.2091 17.0224 17.3925C17.9002 17.9308 19.3081 18.9987 20.1241 19.7547C20.2647 19.8368 20.322 19.8958 20.4355 19.9553C20.4531 19.9894 20.458 19.9972 20.4542 20.0065C20.4151 20.1052 20.4167 20.108 20.3814 20.1867C20.4255 20.2353 20.5076 20.2809 20.5566 20.3234C20.6024 20.3377 20.6024 20.3157 20.6812 20.2964C20.7837 20.3923 20.9105 20.4695 20.9561 20.4651C21.095 20.4298 21.0713 20.4585 21.1887 20.3272C21.231 20.2837 21.3017 20.3278 21.3017 20.3278C21.3457 20.2761 21.4405 20.173 21.5667 20.0986C21.6675 20.039 21.8599 20.0325 21.8599 20.0325C21.9243 20.0331 21.9122 20.0991 21.9067 20.1206C21.834 20.1582 21.6797 20.1994 21.5931 20.2633C21.4047 20.4584 21.257 20.7213 21.257 20.7213C21.6366 20.6695 21.8698 20.7636 22.186 20.7274C22.3585 20.7175 22.4858 20.7285 22.6671 20.5974C22.6671 20.5974 22.8412 20.4734 22.9971 20.4078C23.1487 20.3417 23.2925 20.377 23.4259 20.4739C23.5201 20.5802 23.5768 20.5808 23.4336 20.7307C23.3818 20.7891 23.3068 20.8541 23.2115 20.9483C23.044 21.1138 22.8186 21.3346 22.585 21.517C22.3486 21.7017 22.0802 21.8675 21.9127 21.9435C21.4901 22.2471 21.5899 22.1677 21.2576 22.4687C21.2157 22.5061 21.1044 22.5733 21.0505 22.6091C20.9193 22.6952 20.8785 22.6234 20.7931 22.4659C20.7931 22.4659 20.7539 22.407 20.6895 22.2813C20.6189 22.1441 20.566 21.9872 20.5874 21.9899C20.5087 21.9799 20.1543 21.5644 20.1533 21.4752C20.0784 21.4581 19.7588 21.1485 19.7473 21.0895L19.4641 20.8624C19.1401 20.9296 19.0657 20.7285 18.2099 20.1213C18.1124 20.1196 17.9615 20.0668 17.7454 19.9065C17.3592 19.5972 16.4329 18.8975 16.2758 18.8175C16.1071 18.7316 15.9055 18.6507 15.782 18.5486C15.5969 18.5146 15.4955 18.4952 15.403 18.4693C15.3082 18.4434 15.2222 18.4098 14.9825 18.3778C14.5924 18.3294 14.1879 18.1679 13.8027 17.9751C13.6204 17.8886 13.4617 17.8446 13.3047 17.7772C12.9526 17.6285 12.6506 17.4946 12.4167 17.4405C12.3274 17.4317 11.9031 17.3044 11.6806 17.1744C11.6034 17.1347 11.5587 17.0967 11.5081 17.0851C11.3912 17.0581 11.3162 17.1044 11.2634 17.1221C10.978 17.2709 10.7108 17.3992 10.4639 17.5321C10.234 17.655 10.0225 17.7827 9.7982 17.9118C9.59592 18.0286 9.36226 18.1387 9.12207 18.2534C9.12207 18.2534 8.43711 18.5967 8.063 18.7301C7.73842 18.9951 7.07496 19.4535 6.67004 19.6806C6.46949 19.7759 6.07992 20.0227 5.90021 20.0779C5.79768 20.1605 5.4324 20.4211 5.14642 20.6361C4.92543 20.8014 4.75848 20.9408 4.75848 20.9408C4.63013 21.0559 4.63887 21.1105 4.39484 21.0068C4.32706 21.0625 4.27474 21.0971 4.23116 21.1291C4.0549 21.257 4.03992 21.2262 3.97551 21.2228C3.85263 21.3292 3.83717 21.2741 3.72975 21.3965C3.65919 21.5056 3.73138 21.4796 3.58258 21.5326C3.55119 21.5447 3.53631 21.5826 3.51212 21.6036C3.3925 21.7022 3.39202 21.9805 3.10546 22.0004C2.93957 22.1188 2.982 22.2616 2.85528 22.2555C2.86306 22.3784 2.63103 22.5575 2.58917 22.5569C2.2238 22.6831 2.19845 22.4143 1.75983 22.6148C1.70309 22.6407 1.61986 22.7124 1.51023 22.7333C1.31736 22.7697 1.08428 22.7315 0.9421 22.6214C0.718324 22.4489 0.512308 22.1161 0.512308 22.1161C0.441172 21.948 0.482548 21.8417 0.704596 21.6829C0.79714 21.624 0.814228 21.5799 0.969652 21.5694C1.04684 21.5402 1.02581 21.5848 1.16367 21.5353C1.24354 21.5066 1.24354 21.527 1.40444 21.5133C1.4413 21.4884 1.49314 21.4796 1.56255 21.4571C1.68984 21.4152 1.81388 21.3683 1.81388 21.3683C1.81388 21.3683 1.84632 21.3358 1.96872 21.3474C2.07231 21.305 2.17868 21.2421 2.2332 21.2228C2.21938 21.0586 2.23704 21.0663 2.31308 21.0003C2.40783 20.9187 2.42492 20.9319 2.49548 20.9826C2.52524 20.9654 2.53954 20.9595 2.53628 20.9346C2.52466 20.8492 2.45141 20.809 2.47349 20.6206C2.44095 20.5451 2.39304 20.452 2.40351 20.3958C2.41896 20.3351 2.43384 20.3059 2.47071 20.2866C2.50988 20.2657 2.52255 20.2938 2.54348 20.3174C2.58092 20.361 2.61125 20.4899 2.61125 20.4899C2.6245 20.6355 2.66962 20.8239 2.81343 20.7176C2.89829 20.6315 2.9148 20.4024 3.0878 20.4514L3.21125 20.5589C3.31599 20.4603 3.32098 20.4603 3.38376 20.4206C3.38376 20.4206 3.28565 20.3215 3.37167 20.2443C3.43061 20.1919 3.50165 20.1544 3.62789 20.0145C3.97445 19.6315 4.15244 19.4623 4.52722 19.1537C5.27496 18.5387 6.12572 18.1073 6.66629 17.893C6.84255 17.6692 7.014 17.5205 7.4052 17.4829C7.87023 16.6977 8.76072 15.9963 8.9652 15.8844C9.13157 15.583 9.20376 15.615 9.4214 15.5544C9.59381 15.4162 9.63298 15.4162 9.71016 15.2718C9.78514 14.9737 9.53717 14.1775 10.1702 14.1372C10.3047 13.9472 10.2711 13.9929 10.4209 13.8132C10.3196 13.5631 10.2777 13.3537 10.2502 13.1735C10.2452 13.1526 9.99893 12.979 10.0688 12.7524C9.96418 12.6279 9.76853 12.3373 9.70738 12.2012C9.67935 12.2018 9.65612 12.1912 9.6253 12.1869C9.59333 12.1819 9.55359 12.1836 9.50904 12.1798C9.41045 12.4343 9.30303 12.4531 9.12773 12.5093C8.81477 13.1763 8.70456 13.4585 7.81906 14.01C7.46751 14.4035 7.35509 14.8421 7.35672 14.8355C7.29615 14.9655 7.31756 15.1475 7.34952 15.245C7.30325 15.3894 7.31535 15.4037 7.31535 15.4037C7.33464 15.4582 7.38485 15.5304 7.44648 15.5458C7.55285 15.5739 7.65922 15.5695 7.65308 15.6879C7.63877 15.8362 7.44428 15.8119 7.35221 15.7954C6.99788 15.7391 7.10981 15.5082 6.88325 15.5853C6.70968 15.6989 6.64469 16.0339 6.3614 15.9903C6.32396 15.9656 6.33548 15.8923 6.36082 15.8394C6.40056 15.7568 6.47103 15.6884 6.42917 15.6575C6.24514 15.7154 5.87592 15.8377 5.87592 15.8377C5.70236 15.8851 5.51218 15.7986 5.68306 15.6845C5.76245 15.6537 5.87592 15.6151 6.01589 15.5253C6.01589 15.5253 6.08799 15.4272 5.94975 15.4762C5.79874 15.5303 5.57612 15.5638 5.41637 15.5462C5.41637 15.5462 5.08517 15.5027 5.04274 15.4767C4.99973 15.4508 4.96066 15.3484 5.06424 15.349C5.19538 15.3501 5.5238 15.3114 5.77839 15.2436C5.90127 15.1957 6.13493 15.0575 6.26607 14.9924C6.26607 14.9924 6.40824 14.7852 6.48648 14.7444C6.61704 14.594 6.72725 14.5053 6.84293 14.3515C6.95592 14.1184 7.07276 13.7493 7.44687 13.1778C7.61986 12.9144 7.8348 12.6076 8.10533 12.3333C8.10533 12.3333 8.17532 11.8942 8.52744 11.5817C8.6052 11.3987 8.72309 11.1833 8.83935 10.9838C8.88456 10.9072 8.92748 10.8406 8.97048 10.7678C9.07964 10.5965 9.19426 10.2775 9.61964 10.2273C9.61964 10.2273 9.80146 10.0929 9.87144 9.99743C9.9806 9.90431 9.95573 9.75945 10.0444 9.6574C9.90888 9.52521 9.56232 9.27667 9.52863 8.93116C9.49282 8.56473 9.62338 8.26329 9.84495 8.04019C10.0907 7.79443 10.3497 7.67155 10.6643 7.69027C11.0571 7.74863 11.1315 7.87872 11.2566 8.00764C11.3767 8.12995 11.4214 8.05123 11.4721 8.19446C11.8016 8.28211 11.7834 8.24352 11.7806 8.48601C11.8313 8.55427 11.9161 8.61772 11.915 8.75932C12.0258 8.5295 12.0478 8.48716 12.3437 8.2342C12.4137 8.02867 12.4611 7.82649 12.5228 7.62095C12.5804 7.43087 12.6521 7.23523 12.7077 7.08806C12.6487 6.67257 12.7699 6.60374 12.9313 6.23951C12.9027 6.1894 12.9089 6.1751 12.921 6.09292C12.9838 5.85215 13.0819 5.53363 13.1402 5.32588C13.1402 5.32588 13.1595 5.24323 13.245 5.23718C13.3188 4.97433 13.4296 4.48502 13.4483 4.38527C13.5243 4.11033 13.4753 4.02211 13.4169 3.86726C13.3982 3.81657 13.4069 3.74438 13.3745 3.68812C13.2825 3.5278 13.1833 3.31948 13.1161 3.17068C13.0726 3.07593 13.0036 2.71881 13.0036 2.71881C12.9451 2.53631 12.9963 2.71871 12.9963 2.71871Z" fill="#999999"/>
</svg>
