<svg width="20" height="20" viewBox="0 0 20 20" fill="none" xmlns="http://www.w3.org/2000/svg">
<g clip-path="url(#clip0_862_6466)">
<path d="M1.66748 9.99918L13.3341 9.99917M13.3341 9.99917L10.4175 7.49918M13.3341 9.99917L10.4175 12.4992" stroke="#999999" stroke-width="1.5" stroke-linecap="round" stroke-linejoin="round"/>
<path d="M7.50171 5.83332C7.5118 4.0208 7.59217 3.03921 8.23249 2.39889C8.96473 1.66666 10.1432 1.66666 12.5003 1.66666L13.3336 1.66666C15.6906 1.66666 16.8691 1.66666 17.6014 2.39889C18.3336 3.13112 18.3336 4.30963 18.3336 6.66666L18.3336 13.3333C18.3336 15.6903 18.3336 16.8689 17.6014 17.6011C16.8691 18.3333 15.6906 18.3333 13.3336 18.3333L12.5003 18.3333C10.1432 18.3333 8.96473 18.3333 8.23249 17.6011C7.59217 16.9608 7.5118 15.9792 7.50171 14.1667" stroke="#999999" stroke-width="1.5" stroke-linecap="round"/>
</g>
<defs>
<clipPath id="clip0_862_6466">
<rect width="20" height="20" rx="5" fill="#999999"/>
</clipPath>
</defs>
</svg>
