<svg width="20" height="20" viewBox="0 0 20 20" fill="none" xmlns="http://www.w3.org/2000/svg">
<path d="M3.21988 13.7127C2.50493 10.8529 2.14745 9.42294 2.89814 8.46147C3.64883 7.5 5.12275 7.5 8.07059 7.5H11.9295C14.8773 7.5 16.3513 7.5 17.102 8.46147C17.8526 9.42294 17.4952 10.8529 16.7802 13.7127C16.3255 15.5316 16.0981 16.441 15.42 16.9705C14.7418 17.5 13.8044 17.5 11.9295 17.5H8.07059C6.19572 17.5 5.25828 17.5 4.58012 16.9705C3.90197 16.441 3.67461 15.5316 3.21988 13.7127Z" stroke="#111111" stroke-width="1.5"/>
<path d="M16.25 7.91668L15.658 5.74555C15.4297 4.90838 15.3156 4.4898 15.0815 4.17456C14.8483 3.86062 14.5315 3.61863 14.1673 3.47628C13.8016 3.33334 13.3677 3.33334 12.5 3.33334M3.75 7.91668L4.342 5.74555C4.57027 4.90838 4.6844 4.4898 4.91851 4.17456C5.15166 3.86062 5.46846 3.61863 5.83269 3.47628C6.1984 3.33334 6.63227 3.33334 7.5 3.33334" stroke="#111111" stroke-width="1.5"/>
<path d="M7.5 3.33333C7.5 2.8731 7.8731 2.5 8.33333 2.5H11.6667C12.1269 2.5 12.5 2.8731 12.5 3.33333C12.5 3.79357 12.1269 4.16667 11.6667 4.16667H8.33333C7.8731 4.16667 7.5 3.79357 7.5 3.33333Z" stroke="#111111" stroke-width="1.5"/>
</svg>
