<svg width="152" height="40" viewBox="0 0 152 40" fill="none" xmlns="http://www.w3.org/2000/svg">
<rect width="152" height="40" rx="6" fill="#111111"/>
<rect x="0.490323" y="0.490323" width="151.019" height="39.0194" rx="5.50968" stroke="white" stroke-opacity="0.2" stroke-width="0.980645"/>
<path d="M69.7425 13.7323C68.8584 13.7323 68.1131 13.4217 67.5238 12.8103C66.9392 12.2161 66.6129 11.3968 66.6275 10.5605C66.6275 9.66787 66.9295 8.91221 67.5238 8.31307C68.1107 7.70169 68.8559 7.39111 69.74 7.39111C70.6143 7.39111 71.3596 7.70169 71.9587 8.31307C72.553 8.93178 72.855 9.68744 72.855 10.5605C72.8452 11.4555 72.5432 12.2112 71.9587 12.8079C71.3718 13.4242 70.6265 13.7323 69.7425 13.7323ZM43.4371 13.7323C42.5725 13.7323 41.8224 13.4266 41.2087 12.8226C40.5998 12.221 40.2905 11.4604 40.2905 10.5629C40.2905 9.66543 40.5998 8.90488 41.2087 8.30328C41.8102 7.69925 42.5604 7.39356 43.4371 7.39356C43.8658 7.39356 44.2822 7.47915 44.6816 7.65278C45.0738 7.82152 45.3928 8.0514 45.629 8.33263L45.6875 8.40355L45.0275 9.05405L44.9593 8.97335C44.5867 8.52827 44.0874 8.31062 43.4274 8.31062C42.838 8.31062 42.3241 8.52093 41.9004 8.93667C41.4742 9.35485 41.2574 9.90264 41.2574 10.5654C41.2574 11.2281 41.4742 11.7759 41.9004 12.1941C42.3241 12.6098 42.838 12.8201 43.4274 12.8201C44.0557 12.8201 44.5842 12.6098 44.9958 12.1941C45.2394 11.9495 45.3904 11.6072 45.4439 11.1743H43.3275V10.2597H46.3524L46.3645 10.3428C46.3865 10.4969 46.4084 10.6559 46.4084 10.8026C46.4084 11.6463 46.1551 12.3286 45.6534 12.8323C45.0835 13.4291 44.3382 13.7323 43.4371 13.7323ZM78.4127 13.6027H77.4799L74.6231 9.01248L74.6475 9.83906V13.6002H73.7147V7.52317H74.779L74.8082 7.56964L77.4945 11.8933L77.4701 11.0691V7.52317H78.4127V13.6027ZM62.7332 13.6027H61.7883V8.43779H60.1492V7.52317H64.3698V8.43779H62.7308V13.6027H62.7332ZM59.3796 13.6027H58.4371V7.52317H59.3796V13.6027ZM54.0825 13.6027H53.14V8.43779H51.5009V7.52317H55.7215V8.43779H54.0825V13.6027ZM50.9042 13.5929H47.29V7.52317H50.9042V8.43779H48.235V10.1056H50.6436V11.0105H48.235V12.6783H50.9042V13.5929ZM68.2154 12.1818C68.6368 12.6049 69.1482 12.8177 69.7425 12.8177C70.3538 12.8177 70.853 12.6098 71.2695 12.1818C71.6835 11.7661 71.893 11.2208 71.893 10.5629C71.893 9.90509 71.6835 9.35729 71.2719 8.94401C70.8506 8.52093 70.3367 8.30818 69.7449 8.30818C69.1336 8.30818 68.6343 8.51604 68.2203 8.94401C67.8063 9.35974 67.5968 9.90509 67.5968 10.5629C67.5968 11.2208 67.8038 11.7686 68.2154 12.1818Z" fill="white"/>
<path fill-rule="evenodd" clip-rule="evenodd" d="M66.5396 22.0229C64.2381 22.0229 62.3725 23.7763 62.3725 26.1949C62.3725 28.5915 64.2502 30.3669 66.5396 30.3669C68.8411 30.3669 70.7067 28.6013 70.7067 26.1949C70.7067 23.7763 68.8411 22.0229 66.5396 22.0229ZM66.5396 28.7138C65.2804 28.7138 64.1966 27.6671 64.1966 26.1851C64.1966 24.6811 65.2829 23.6565 66.5396 23.6565C67.7987 23.6565 68.8825 24.6811 68.8825 26.1851C68.8849 27.6769 67.7987 28.7138 66.5396 28.7138ZM57.448 22.0229C55.1464 22.0229 53.2809 23.7763 53.2809 26.1949C53.2809 28.5915 55.1586 30.3669 57.448 30.3669C59.7495 30.3669 61.615 28.6013 61.615 26.1949C61.615 23.7763 59.747 22.0229 57.448 22.0229ZM57.448 28.7138C56.1888 28.7138 55.105 27.6671 55.105 26.1851C55.105 24.6811 56.1913 23.6565 57.448 23.6565C58.7071 23.6565 59.7909 24.6811 59.7909 26.1851C59.7909 27.6769 58.7071 28.7138 57.448 28.7138ZM46.6296 23.297V25.0626H50.8503C50.7212 26.0531 50.3948 26.7843 49.8956 27.2856C49.277 27.9068 48.3223 28.5817 46.6393 28.5817C44.0456 28.5817 42.0168 26.4786 42.0168 23.8741C42.0168 21.2697 44.0456 19.1665 46.6393 19.1665C48.0397 19.1665 49.0602 19.7217 49.8176 20.4309L51.0646 19.1788C50.0125 18.1663 48.6121 17.3911 46.6491 17.3911C43.0909 17.3911 40.105 20.3013 40.105 23.8643C40.105 27.4372 43.0884 30.3376 46.6491 30.3376C48.5707 30.3376 50.0125 29.7066 51.1523 28.5181C52.314 27.3516 52.6818 25.7058 52.6818 24.3779C52.6818 23.9646 52.6501 23.5929 52.5843 23.2774H46.6272C46.6296 23.275 46.6296 23.297 46.6296 23.297ZM90.8797 24.6714C90.5314 23.7347 89.4793 22.0131 87.3214 22.0131C85.1831 22.0131 83.4052 23.7029 83.4052 26.1851C83.4052 28.5279 85.1636 30.3571 87.5284 30.3571C89.4281 30.3571 90.5338 29.1906 90.9893 28.5059L89.5791 27.5571C89.1115 28.254 88.4612 28.7113 87.5382 28.7113C86.6054 28.7113 85.9527 28.2858 85.5192 27.447L91.0745 25.136C91.0745 25.1385 90.8797 24.6714 90.8797 24.6714ZM85.2148 26.0653C85.1709 24.4537 86.4617 23.6345 87.3848 23.6345C88.113 23.6345 88.7194 23.994 88.9264 24.5173L85.2148 26.0653ZM80.7018 30.1077H82.526V17.8509H80.7018V30.1077ZM77.7062 22.9497H77.6404C77.2288 22.4582 76.4471 22.0131 75.4485 22.0131C73.3759 22.0131 71.4665 23.8448 71.4665 26.1974C71.4665 28.5401 73.3662 30.3498 75.4485 30.3498C76.4349 30.3498 77.2288 29.9023 77.6404 29.401H77.7062V30.0001C77.7062 31.5921 76.8587 32.4505 75.4924 32.4505C74.3745 32.4505 73.6804 31.6435 73.3979 30.9685L71.8124 31.6337C72.2678 32.7342 73.4831 34.0963 75.4899 34.0963C77.6283 34.0963 79.4403 32.832 79.4403 29.7482V22.2625H77.7159V22.9497C77.7184 22.9497 77.7062 22.9497 77.7062 22.9497ZM75.6117 28.7138C74.3526 28.7138 73.3004 27.6573 73.3004 26.1974C73.3004 24.7252 74.3526 23.6589 75.6117 23.6589C76.8587 23.6589 77.8255 24.7374 77.8255 26.1974C77.8377 27.6573 76.8611 28.7138 75.6117 28.7138ZM99.4208 17.8509H95.0589V30.1077H96.8831V25.4662H99.4233C101.442 25.4662 103.427 23.9964 103.427 21.6634C103.427 19.3304 101.45 17.8509 99.4208 17.8509ZM99.4744 23.7543H96.8807V19.548H99.4744C100.841 19.548 101.613 20.6803 101.613 21.6512C101.613 22.6123 100.831 23.7543 99.4744 23.7543ZM110.738 22.0009C109.414 22.0009 108.047 22.5902 107.482 23.8741L109.099 24.5491C109.448 23.8741 110.086 23.6443 110.76 23.6443C111.705 23.6443 112.66 24.2116 112.682 25.224V25.3537C112.356 25.1678 111.64 24.8841 110.782 24.8841C109.036 24.8841 107.265 25.8428 107.265 27.6402C107.265 29.286 108.698 30.3425 110.293 30.3425C111.518 30.3425 112.192 29.7873 112.614 29.1442H112.68V30.093H114.438V25.3977C114.438 23.2114 112.821 22.0009 110.738 22.0009ZM110.51 28.7138C109.913 28.7138 109.077 28.4203 109.077 27.6671C109.077 26.7182 110.12 26.3588 111.009 26.3588C111.813 26.3588 112.192 26.5324 112.67 26.772C112.538 27.8725 111.613 28.704 110.51 28.7138ZM120.853 22.2625L118.758 27.5791H118.693L116.523 22.2625H114.56L117.816 29.6944L115.96 33.8249H117.86L122.87 22.2625H120.853ZM104.433 30.1077H106.257V17.8509H104.433V30.1077Z" fill="white"/>
<path fill-rule="evenodd" clip-rule="evenodd" d="M10.1898 7.14415C9.90732 7.44984 9.74414 7.91693 9.74414 8.52831V30.2125C9.74414 30.8239 9.90732 31.291 10.1996 31.5845L10.2751 31.6505L22.3745 19.5013V19.2298L10.2653 7.07812L10.1898 7.14415Z" fill="url(#paint0_linear_159_7069)"/>
<path fill-rule="evenodd" clip-rule="evenodd" d="M26.4011 23.5629L22.3655 19.5107V19.227L26.4011 15.1748L26.4887 15.2286L31.2623 17.9529C32.6286 18.7257 32.6286 20.0022 31.2623 20.7848L26.4887 23.5091L26.4011 23.5629Z" fill="url(#paint1_linear_159_7069)"/>
<path fill-rule="evenodd" clip-rule="evenodd" d="M26.4876 23.5099L22.3644 19.3696L10.1895 31.5947C10.6351 32.074 11.3828 32.1278 12.2182 31.6607L26.4876 23.5099Z" fill="url(#paint2_linear_159_7069)"/>
<path fill-rule="evenodd" clip-rule="evenodd" d="M26.4876 15.229L12.2182 7.09038C11.3828 6.61106 10.6327 6.67709 10.1895 7.15641L22.3644 19.3692L26.4876 15.229Z" fill="url(#paint3_linear_159_7069)"/>
<path opacity="0.2" fill-rule="evenodd" clip-rule="evenodd" d="M30.3116 23.8943L14.04 32.1386C13.1312 32.605 12.3203 32.5726 11.7974 32.1486L11.7107 32.2259L11.7974 32.2933C12.3203 32.7147 13.1312 32.7496 14.04 32.2833L30.4235 23.9841L30.3116 23.8943Z" fill="#111111"/>
<path opacity="0.12" fill-rule="evenodd" clip-rule="evenodd" d="M35.893 21.0619L30.2976 23.8949L30.3983 23.9846L35.879 21.2066C36.6647 20.8076 37.0506 20.2839 37.0506 19.7627C37.0031 20.2415 36.6032 20.6954 35.893 21.0619Z" fill="#111111"/>
<defs>
<linearGradient id="paint0_linear_159_7069" x1="21.2892" y1="8.29436" x2="1.8975" y2="13.4401" gradientUnits="userSpaceOnUse">
<stop stop-color="#00A0FF"/>
<stop offset="0.00657" stop-color="#00A1FF"/>
<stop offset="0.2601" stop-color="#00BEFF"/>
<stop offset="0.5122" stop-color="#00D2FF"/>
<stop offset="0.7604" stop-color="#00DFFF"/>
<stop offset="1" stop-color="#00E3FF"/>
</linearGradient>
<linearGradient id="paint1_linear_159_7069" x1="33.0441" y1="19.3689" x2="9.41274" y2="19.3689" gradientUnits="userSpaceOnUse">
<stop stop-color="#FFE000"/>
<stop offset="0.4087" stop-color="#FFBD00"/>
<stop offset="0.7754" stop-color="#FFA500"/>
<stop offset="1" stop-color="#FF9C00"/>
</linearGradient>
<linearGradient id="paint2_linear_159_7069" x1="24.2455" y1="21.6225" x2="8.59172" y2="47.8611" gradientUnits="userSpaceOnUse">
<stop stop-color="#FF3A44"/>
<stop offset="1" stop-color="#C31162"/>
</linearGradient>
<linearGradient id="paint3_linear_159_7069" x1="7.12368" y1="-0.0683397" x2="14.1075" y2="11.6503" gradientUnits="userSpaceOnUse">
<stop stop-color="#32A071"/>
<stop offset="0.0685" stop-color="#2DA771"/>
<stop offset="0.4762" stop-color="#15CF74"/>
<stop offset="0.8009" stop-color="#06E775"/>
<stop offset="1" stop-color="#00F076"/>
</linearGradient>
</defs>
</svg>
