<svg width="66" height="66" viewBox="0 0 66 66" fill="none" xmlns="http://www.w3.org/2000/svg">
<path fill-rule="evenodd" clip-rule="evenodd" d="M21.4485 0.913086H24.0155V6.047H26.5824V8.61396H29.1494V24.0157H26.5824V16.3148H24.0155V18.8818H21.4485V13.7479H24.0155V11.1809H21.4485V0.913086ZM36.8503 0.913086H41.9842V3.48004H36.8503V0.913086ZM29.1494 3.48004H34.2833V8.61396H31.7163V6.047H29.1494V3.48004ZM41.9842 3.48004H44.5511V6.047H41.9842V3.48004ZM36.8503 6.047H39.4172V8.61396H44.5511V18.8818H41.9842V13.7479H36.8503V11.1809H34.2833V8.61396H36.8503V6.047ZM31.7163 11.1809H34.2833V13.7479H31.7163V11.1809ZM34.2833 13.7479H36.8503V16.3148H34.2833V13.7479ZM31.7163 16.3148H34.2833V18.8818H31.7163V16.3148ZM36.8503 16.3148H39.4172V18.8818H36.8503V16.3148ZM0.912842 21.4487H6.04676V24.0157H0.912842V21.4487ZM11.1807 21.4487H18.8815V24.0157H16.3146V26.5827H13.7476V24.0157H11.1807V21.4487ZM34.2833 21.4487H36.8503V24.0157H39.4172V21.4487H41.9842V31.7166H39.4172V26.5827H36.8503V29.1496H34.2833V34.2835H31.7163V31.7166H29.1494V29.1496H26.5824V31.7166H24.0155V34.2835H21.4485V31.7166H18.8815V29.1496H21.4485V26.5827H29.1494V24.0157H34.2833V21.4487ZM49.685 21.4487H52.252V24.0157H49.685V21.4487ZM54.819 21.4487H65.0868V24.0157H62.5198V26.5827H59.9529V24.0157H57.3859V26.5827H59.9529V29.1496H62.5198V31.7166H65.0868V34.2835H62.5198V36.8505H59.9529V34.2835H54.819V31.7166H57.3859V29.1496H54.819V26.5827H52.252V24.0157H54.819V21.4487ZM6.04676 24.0157H8.61372V26.5827H11.1807V34.2835H8.61372V39.4174H6.04676V36.8505H0.912842V26.5827H6.04676V24.0157ZM3.4798 29.1496H8.61372V31.7166H3.4798V29.1496ZM18.8815 24.0157H21.4485V26.5827H18.8815V24.0157ZM44.5511 24.0157H47.1181V29.1496H49.685V34.2835H47.1181V31.7166H44.5511V24.0157ZM16.3146 26.5827H18.8815V29.1496H16.3146V26.5827ZM49.685 26.5827H52.252V29.1496H49.685V26.5827ZM16.3146 31.7166H18.8815V34.2835H16.3146V31.7166ZM13.7476 34.2835H16.3146V36.8505H13.7476V34.2835ZM18.8815 34.2835H21.4485V36.8505H24.0155V39.4174H26.5824V41.9844H24.0155V47.1183H21.4485V41.9844H18.8815V39.4174H16.3146V36.8505H18.8815V34.2835ZM26.5824 34.2835H31.7163V36.8505H34.2833V34.2835H36.8503V39.4174H34.2833V41.9844H31.7163V39.4174H29.1494V36.8505H26.5824V34.2835ZM39.4172 34.2835H44.5511V36.8505H41.9842V39.4174H39.4172V34.2835ZM52.252 34.2835H54.819V36.8505H59.9529V39.4174H62.5198V41.9844H59.9529V44.5514H54.819V49.6853H62.5198V54.8192H65.0868V57.3862H62.5198V62.5201H65.0868V65.087H57.3859V62.5201H49.685V59.9531H54.819V57.3862H57.3859V59.9531H59.9529V57.3862H57.3859V54.8192H52.252V57.3862H49.685V59.9531H47.1181V57.3862H44.5511V54.8192H41.9842V41.9844H44.5511V39.4174H47.1181V36.8505H52.252V34.2835ZM54.819 39.4174H57.3859V41.9844H54.819V39.4174ZM44.5511 44.5514H52.252V52.2522H44.5511V44.5514ZM0.912842 41.9844H8.61372V44.5514H0.912842V41.9844ZM16.3146 41.9844H18.8815V44.5514H16.3146V41.9844ZM26.5824 41.9844H29.1494V44.5514H26.5824V41.9844ZM36.8503 41.9844H39.4172V44.5514H36.8503V41.9844ZM29.1494 44.5514H36.8503V47.1183H31.7163V49.6853H24.0155V47.1183H29.1494V44.5514ZM36.8503 47.1183H39.4172V52.2522H36.8503V47.1183ZM47.1181 47.1183H49.685V49.6853H47.1181V47.1183ZM21.4485 49.6853H24.0155V54.8192H21.4485V49.6853ZM31.7163 49.6853H34.2833V52.2522H36.8503V54.8192H31.7163V49.6853ZM26.5824 52.2522H29.1494V54.8192H26.5824V52.2522ZM24.0155 54.8192H26.5824V57.3862H24.0155V54.8192ZM36.8503 54.8192H41.9842V57.3862H44.5511V59.9531H41.9842V65.087H39.4172V57.3862H36.8503V54.8192ZM26.5824 57.3862H36.8503V59.9531H29.1494V65.087H21.4485V59.9531H24.0155V62.5201H26.5824V57.3862ZM44.5511 59.9531H47.1181V62.5201H44.5511V59.9531ZM47.1181 62.5201H49.685V65.087H47.1181V62.5201Z" fill="white"/>
<path fill-rule="evenodd" clip-rule="evenodd" d="M0.912842 0.913086H18.8815V18.8818H0.912842V0.913086ZM3.4798 3.48004H16.3146V16.3148H3.4798V3.48004ZM6.04676 6.047H13.7476V13.7479H6.04676V6.047ZM47.1181 0.913086H65.0868V18.8818H47.1181V0.913086ZM49.685 3.48004H62.5198V16.3148H49.685V3.48004ZM52.252 6.047H59.9529V13.7479H52.252V6.047ZM0.912842 47.1183H18.8815V65.087H0.912842V47.1183ZM3.4798 49.6853H16.3146V62.5201H3.4798V49.6853ZM6.04676 52.2522H13.7476V59.9531H6.04676V52.2522Z" fill="white"/>
</svg>
